<svg xmlns="http://www.w3.org/2000/svg" width="22" height="22" version="1">
 <rect style="opacity:0.2" width="20" height="12" x="1" y="8.5" rx="1" ry="1"/>
 <path style="fill:#4877b1" d="M 1,16 C 1,16.554 1.446,17 2,17 H 20 C 20.554,17 21,16.554 21,16 V 5 C 21,4.446 20.554,4 20,4 H 11 C 9.5,4 9,2 7.5,2 H 2 C 1.446,2 1,2.446 1,3"/>
 <path style="opacity:0.1;fill:#ffffff" d="M 2,2 C 1.446,2 1,2.446 1,3 V 3.5 C 1,2.946 1.446,2.5 2,2.5 H 7.5 C 9,2.5 9.5,4.5 11,4.5 H 20 C 20.554,4.5 21,4.946 21,5.5 V 5 C 21,4.446 20.554,4 20,4 H 11 C 9.5,4 9,2 7.5,2 Z"/>
 <rect style="opacity:0.2" width="20" height="12" x="1" y="7.5" rx="1" ry="1"/>
 <rect style="fill:#e4e4e4" width="16" height="8" x="3" y="6" rx="1" ry="1"/>
 <rect style="fill:#5294e2" width="20" height="12" x="1" y="8" rx="1" ry="1"/>
 <path style="fill:#1d344f" d="m 11,10 a 4,4 0 0 0 -4,4 4,4 0 0 0 4,4 4,4 0 0 0 4,-4 4,4 0 0 0 -4,-4 z m -0.848229,1.715429 c 0.07749,-0.0014 0.156058,-7.43e-4 0.232172,0 1.826914,0.02497 3.248628,0.783428 3.248628,0.783428 0.185143,0.09834 0.273715,0.392515 0.196572,0.6284 -0.07714,0.235829 -0.314857,0.367029 -0.5,0.268972 0,0 -2.317143,-1.223258 -4.676229,-0.471029 -0.198685,0.08309 -0.449085,-0.07743 -0.5,-0.335943 -0.05091,-0.2584 0.09766,-0.558514 0.303543,-0.604857 0.5816,-0.185486 1.153029,-0.257657 1.695314,-0.268971 z m 0.248915,1.714285 c 0.06446,-5.71e-4 0.121257,-0.0024 0.184114,0 1.508,0.05257 2.552343,0.886114 2.552343,0.886114 0.133714,0.105715 0.187428,0.378058 0.118286,0.582629 -0.06914,0.204571 -0.252,0.307829 -0.386286,0.202 0,0 -1.661143,-1.339771 -3.795486,-0.556914 -0.15,0.07086 -0.316228,-0.06989 -0.352686,-0.3036 -0.03646,-0.233715 0.08074,-0.490686 0.235486,-0.531257 0.5128,-0.188 0.993257,-0.274972 1.444229,-0.278972 z m 0.179657,1.713143 c 0.737714,0.01429 1.395428,0.288 2.0248,0.659429 0.09371,0.06171 0.138857,0.235428 0.08686,0.359428 -0.052,0.124572 -0.192571,0.162857 -0.277714,0.08057 0,0 -1.163429,-0.948 -2.889715,-0.42 -0.09909,0.04286 -0.212571,-0.03943 -0.235485,-0.179429 -0.02292,-0.14 0.05903,-0.3 0.161828,-0.320571 0.405829,-0.124 0.7836,-0.181715 1.129429,-0.179429 z"/>
</svg>
