<svg xmlns="http://www.w3.org/2000/svg" width="22" height="22" version="1">
 <rect style="opacity:0.2" width="20" height="12" x="1" y="8.5" rx="1" ry="1"/>
 <path style="fill:#4877b1" d="M 1,16 C 1,16.554 1.446,17 2,17 H 20 C 20.554,17 21,16.554 21,16 V 5 C 21,4.446 20.554,4 20,4 H 11 C 9.5,4 9,2 7.5,2 H 2 C 1.446,2 1,2.446 1,3"/>
 <path style="opacity:0.1;fill:#ffffff" d="M 2,2 C 1.446,2 1,2.446 1,3 V 3.5 C 1,2.946 1.446,2.5 2,2.5 H 7.5 C 9,2.5 9.5,4.5 11,4.5 H 20 C 20.554,4.5 21,4.946 21,5.5 V 5 C 21,4.446 20.554,4 20,4 H 11 C 9.5,4 9,2 7.5,2 Z"/>
 <rect style="opacity:0.2" width="20" height="12" x="1" y="7.5" rx="1" ry="1"/>
 <rect style="fill:#e4e4e4" width="16" height="8" x="3" y="6" rx="1" ry="1"/>
 <rect style="fill:#5294e2" width="20" height="12" x="1" y="8" rx="1" ry="1"/>
 <path style="fill:#1d344f" d="m 14.026303,16.695345 c 0.126816,-0.258191 0.855509,-4.672978 0.959679,-5.81421 0.112695,-1.1308632 -0.474911,-0.9205695 -1.015602,-0.729531 -1.326526,0.470315 -5.5205791,2.484629 -6.6685729,3.113805 -0.2826253,0.123056 -0.4047881,0.331844 -0.1991448,0.512556 0.1770586,0.153175 0.8249514,0.363555 1.3474605,0.470319 0.4454152,0.141687 0.7913933,0.006 1.1107605,-0.183187 0.7674997,-0.477797 3.0544757,-2.105303 3.1776317,-2.190004 0.123157,-0.0847 0.257949,0.07249 0.189023,0.148589 -0.06893,0.0761 -1.688599,1.601221 -2.220375,2.290779 -0.281727,0.37915 -0.273288,0.581573 0.01613,0.820663 0.649281,0.534595 2.384025,1.753336 2.642148,1.827001 0.329147,0.09393 0.521918,0.01612 0.660867,-0.26678 z"/>
</svg>
