<svg xmlns="http://www.w3.org/2000/svg" width="22" height="22" version="1">
 <rect style="opacity:0.2" width="20" height="12" x="1" y="8.5" rx="1" ry="1"/>
 <path style="fill:#4877b1" d="M 1,16 C 1,16.554 1.446,17 2,17 H 20 C 20.554,17 21,16.554 21,16 V 5 C 21,4.446 20.554,4 20,4 H 11 C 9.5,4 9,2 7.5,2 H 2 C 1.446,2 1,2.446 1,3"/>
 <path style="opacity:0.1;fill:#ffffff" d="M 2,2 C 1.446,2 1,2.446 1,3 V 3.5 C 1,2.946 1.446,2.5 2,2.5 H 7.5 C 9,2.5 9.5,4.5 11,4.5 H 20 C 20.554,4.5 21,4.946 21,5.5 V 5 C 21,4.446 20.554,4 20,4 H 11 C 9.5,4 9,2 7.5,2 Z"/>
 <rect style="opacity:0.2" width="20" height="12" x="1" y="7.5" rx="1" ry="1"/>
 <rect style="fill:#e4e4e4" width="16" height="8" x="3" y="6" rx="1" ry="1"/>
 <rect style="fill:#5294e2" width="20" height="12" x="1" y="8" rx="1" ry="1"/>
 <path style="fill:#1d344f" d="M 10.599609 10.5 C 10.488809 10.5 10.400391 10.58842 10.400391 10.699219 L 10.400391 11.300781 C 10.400391 11.411581 10.488809 11.5 10.599609 11.5 L 11.199219 11.5 C 11.310019 11.5 11.400391 11.41158 11.400391 11.300781 L 11.400391 10.699219 C 11.400391 10.588419 11.310021 10.5 11.199219 10.5 L 10.599609 10.5 z M 9.1796875 11.900391 C 9.0785917 11.910591 9 11.995731 9 12.099609 L 9 12.699219 C 9 12.810019 9.0884191 12.900391 9.1992188 12.900391 L 9.8007812 12.900391 C 9.9115808 12.900391 10 12.810021 10 12.699219 L 10 12.099609 C 10 11.988809 9.9115812 11.900391 9.8007812 11.900391 L 9.1992188 11.900391 C 9.1922888 11.900391 9.1864268 11.89971 9.1796875 11.900391 z M 10.580078 11.900391 C 10.478982 11.910591 10.400391 11.995731 10.400391 12.099609 L 10.400391 12.699219 C 10.400391 12.810019 10.48881 12.900391 10.599609 12.900391 L 11.199219 12.900391 C 11.310019 12.900391 11.400391 12.810021 11.400391 12.699219 L 11.400391 12.099609 C 11.400391 11.988809 11.310021 11.900391 11.199219 11.900391 L 10.599609 11.900391 C 10.592709 11.900391 10.586818 11.89971 10.580078 11.900391 z M 13.328125 13 C 13.315144 13.000003 13.207932 13.169666 13.164062 13.259766 C 13.057558 13.478396 13.007812 13.681216 13.007812 13.902344 C 13.00735 14.102759 13.046009 14.267198 13.130859 14.431641 C 13.152839 14.474231 13.171875 14.512825 13.171875 14.515625 C 13.171875 14.527345 13.056757 14.572319 12.960938 14.599609 C 12.892222 14.619179 12.74854 14.645297 12.65625 14.654297 C 12.601419 14.659897 11.648522 14.66394 9.8847656 14.664062 C 7.2012024 14.664212 7.1961812 14.662998 7.1601562 14.679688 C 7.0801352 14.716722 7.0312066 14.775938 7.0097656 14.861328 C 6.9962306 14.91584 6.9963169 15.051792 7.0136719 15.28125 C 7.0631212 15.932699 7.2608694 16.24423 7.5625 16.652344 C 7.8061584 16.982026 8.0788048 17.175411 8.5039062 17.316406 C 8.8007542 17.414859 9.1060258 17.465875 9.5566406 17.496094 L 9.5566406 17.498047 C 9.6372367 17.502647 10.05825 17.500741 10.160156 17.494141 C 11.054793 17.43744 11.831424 17.170312 12.4375 16.712891 C 13.040112 16.258098 13.482282 15.91203 13.832031 15.015625 L 13.851562 14.96875 L 13.929688 14.96875 C 14.289004 14.968092 14.6069 14.842614 14.830078 14.617188 C 14.917517 14.528878 14.972738 14.455522 15.023438 14.357422 C 15.055217 14.295952 15.099609 14.179966 15.099609 14.160156 C 15.099609 14.156876 15.073196 14.134255 15.041016 14.109375 C 14.920419 14.015996 14.77253 13.959007 14.572266 13.929688 C 14.445829 13.911228 14.162174 13.918499 14.042969 13.943359 C 14.022699 13.947589 14.021739 13.945009 14.011719 13.886719 C 13.963544 13.609114 13.774972 13.310064 13.533203 13.126953 C 13.472915 13.081278 13.340865 12.999995 13.328125 13 z M 7.7792969 13.300781 C 7.678201 13.310987 7.5996094 13.396125 7.5996094 13.5 L 7.5996094 14.099609 C 7.5996094 14.210409 7.6880284 14.300781 7.7988281 14.300781 L 8.4003906 14.300781 C 8.5111904 14.300781 8.5996094 14.210409 8.5996094 14.099609 L 8.5996094 13.5 C 8.5996094 13.3892 8.5111903 13.300781 8.4003906 13.300781 L 7.7988281 13.300781 C 7.7919081 13.300781 7.7860362 13.300101 7.7792969 13.300781 z M 9.1796875 13.300781 C 9.0785917 13.310987 9 13.396125 9 13.5 L 9 14.099609 C 9 14.210409 9.0884191 14.300781 9.1992188 14.300781 L 9.8007812 14.300781 C 9.9115808 14.300781 10 14.210411 10 14.099609 L 10 13.5 C 10 13.3892 9.9115812 13.300781 9.8007812 13.300781 L 9.1992188 13.300781 C 9.1922888 13.300781 9.1864268 13.300101 9.1796875 13.300781 z M 10.580078 13.300781 C 10.478982 13.310991 10.400391 13.396121 10.400391 13.5 L 10.400391 14.099609 C 10.400391 14.210409 10.48881 14.300781 10.599609 14.300781 L 11.199219 14.300781 C 11.310019 14.300781 11.400391 14.210411 11.400391 14.099609 L 11.400391 13.5 C 11.400391 13.3892 11.310021 13.300781 11.199219 13.300781 L 10.599609 13.300781 C 10.592709 13.300781 10.586818 13.300101 10.580078 13.300781 z M 11.978516 13.300781 C 11.87742 13.310987 11.798828 13.396125 11.798828 13.5 L 11.798828 14.099609 C 11.798828 14.210409 11.889198 14.300781 12 14.300781 L 12.599609 14.300781 C 12.710409 14.300781 12.800781 14.210411 12.800781 14.099609 L 12.800781 13.5 C 12.800781 13.3892 12.710411 13.300781 12.599609 13.300781 L 12 13.300781 C 11.9931 13.300781 11.985266 13.300101 11.978516 13.300781 z"/>
</svg>
