<svg xmlns="http://www.w3.org/2000/svg" width="64" height="64" version="1">
 <rect style="opacity:0.2" width="56" height="36" x="4" y="22" rx="2.8" ry="2.8"/>
 <path style="fill:#4877b1" d="M 4,46.2 C 4,47.751 5.2488,49 6.8,49 H 57.2 C 58.751,49 60,47.751 60,46.2 V 15.8 C 60,14.249 58.751,13 57.2,13 H 32 C 27.8,13 26.4,7 22.2,7 H 6.8 C 5.2488,7 4,8.2488 4,9.8"/>
 <rect style="opacity:0.2" width="56" height="36" x="4" y="20" rx="2.8" ry="2.8"/>
 <rect style="fill:#e4e4e4" width="48" height="22" x="8" y="16" rx="2.8" ry="2.8"/>
 <rect style="fill:#5294e2" width="56" height="36" x="4" y="21" rx="2.8" ry="2.8"/>
 <path style="opacity:0.1;fill:#ffffff" d="M 6.8008,7 C 5.2496,7 4,8.2496 4,9.8008 V 10.801 C 4,9.2496 5.2496,8 6.8008,8 H 22.199 C 26.399,8 27.8,14 32,14 H 57.199 C 58.75,14 60,15.25 60,16.801 V 15.801 C 60,14.25 58.75,13 57.199,13 H 32 C 27.8,13 26.399,7 22.199,7 Z"/>
 <path style="fill:#1d344f" d="M 32.400391 29 C 32.178791 29 32 29.178791 32 29.400391 L 32 30.599609 C 32 30.821209 32.178791 31 32.400391 31 L 33.599609 31 C 33.821209 31 34 30.821209 34 30.599609 L 34 29.400391 C 34 29.178791 33.821209 29 33.599609 29 L 32.400391 29 z M 26.400391 32 C 26.178791 32 26 32.178791 26 32.400391 L 26 33.599609 C 26 33.821209 26.178791 34 26.400391 34 L 27.599609 34 C 27.821209 34 28 33.821209 28 33.599609 L 28 32.400391 C 28 32.178791 27.821209 32 27.599609 32 L 26.400391 32 z M 29.400391 32 C 29.178791 32 29 32.178791 29 32.400391 L 29 33.599609 C 29 33.821209 29.178791 34 29.400391 34 L 30.599609 34 C 30.821209 34 31 33.821209 31 33.599609 L 31 32.400391 C 31 32.178791 30.821209 32 30.599609 32 L 29.400391 32 z M 32.400391 32 C 32.178791 32 32 32.178791 32 32.400391 L 32 33.599609 C 32 33.821209 32.178791 34 32.400391 34 L 33.599609 34 C 33.821209 34 34 33.821209 34 33.599609 L 34 32.400391 C 34 32.178791 33.821209 32 33.599609 32 L 32.400391 32 z M 38.408203 34.199219 C 38.374553 34.199228 38.096174 34.61754 37.982422 34.839844 C 37.706317 35.379386 37.578125 35.880089 37.578125 36.425781 C 37.576924 36.920368 37.676532 37.029739 37.896484 37.435547 C 37.95344 37.540533 38 37.633225 38 37.640625 C 38 37.669757 37.703531 37.784313 37.455078 37.851562 C 37.276926 37.899778 36.903315 37.963438 36.664062 37.986328 C 36.52191 37.999848 34.049281 38.00752 29.476562 38.007812 C 22.519159 38.008262 22.505509 38.007698 22.412109 38.048828 C 22.204656 38.140219 22.079037 38.285333 22.023438 38.496094 C 21.988438 38.630616 21.992119 38.964996 22.037109 39.53125 C 22.165312 41.138891 22.676974 42.903013 23.458984 43.910156 C 24.090694 44.72376 24.798275 45.198929 25.900391 45.546875 C 26.670003 45.789844 27.458685 45.917608 28.626953 45.992188 C 28.835906 46.005527 29.93111 46.000325 30.195312 45.984375 C 32.514748 45.844451 34.52438 45.189377 36.095703 44.060547 C 37.658026 42.93822 38.808081 41.385969 39.714844 39.173828 L 39.761719 39.056641 L 39.962891 39.056641 C 40.894456 39.055014 41.722173 38.74967 42.300781 38.193359 C 42.527486 37.975432 42.66933 37.792938 42.800781 37.550781 C 42.883183 37.39908 43 37.113403 43 37.064453 C 43 37.056421 42.931116 36.99902 42.847656 36.9375 C 42.535002 36.706964 42.148114 36.566411 41.628906 36.494141 C 41.301102 36.448511 40.566866 36.465864 40.257812 36.527344 C 40.205263 36.537766 40.201781 36.534357 40.175781 36.390625 C 40.050878 35.705556 39.562356 34.967508 38.935547 34.515625 C 38.779244 34.402969 38.441203 34.199209 38.408203 34.199219 z M 23.400391 35 C 23.178791 35 23 35.178791 23 35.400391 L 23 36.599609 C 23 36.821209 23.178791 37 23.400391 37 L 24.599609 37 C 24.821209 37 25 36.821209 25 36.599609 L 25 35.400391 C 25 35.178791 24.821209 35 24.599609 35 L 23.400391 35 z M 26.400391 35 C 26.178791 35 26 35.178791 26 35.400391 L 26 36.599609 C 26 36.821209 26.178791 37 26.400391 37 L 27.599609 37 C 27.821209 37 28 36.821209 28 36.599609 L 28 35.400391 C 28 35.178791 27.821209 35 27.599609 35 L 26.400391 35 z M 29.400391 35 C 29.178791 35 29 35.178791 29 35.400391 L 29 36.599609 C 29 36.821209 29.178791 37 29.400391 37 L 30.599609 37 C 30.821209 37 31 36.821209 31 36.599609 L 31 35.400391 C 31 35.178791 30.821209 35 30.599609 35 L 29.400391 35 z M 32.400391 35 C 32.178791 35 32 35.178791 32 35.400391 L 32 36.599609 C 32 36.821209 32.178791 37 32.400391 37 L 33.599609 37 C 33.821209 37 34 36.821209 34 36.599609 L 34 35.400391 C 34 35.178791 33.821209 35 33.599609 35 L 32.400391 35 z M 35.400391 35 C 35.178791 35 35 35.178791 35 35.400391 L 35 36.599609 C 35 36.821209 35.178791 37 35.400391 37 L 36.599609 37 C 36.821209 37 37 36.821209 37 36.599609 L 37 35.400391 C 37 35.178791 36.821209 35 36.599609 35 L 35.400391 35 z"/>
</svg>
