<svg xmlns="http://www.w3.org/2000/svg" width="64" height="64" version="1">
 <rect style="opacity:0.2" width="56" height="36" x="4" y="22" rx="2.8" ry="2.8"/>
 <path style="fill:#4877b1" d="M 4,46.2 C 4,47.751 5.2488,49 6.8,49 H 57.2 C 58.751,49 60,47.751 60,46.2 V 15.8 C 60,14.249 58.751,13 57.2,13 H 32 C 27.8,13 26.4,7 22.2,7 H 6.8 C 5.2488,7 4,8.2488 4,9.8"/>
 <rect style="opacity:0.2" width="56" height="36" x="4" y="20" rx="2.8" ry="2.8"/>
 <rect style="fill:#e4e4e4" width="48" height="22" x="8" y="16" rx="2.8" ry="2.8"/>
 <rect style="fill:#5294e2" width="56" height="36" x="4" y="21" rx="2.8" ry="2.8"/>
 <path style="opacity:0.1;fill:#ffffff" d="M 6.8008,7 C 5.2496,7 4,8.2496 4,9.8008 V 10.801 C 4,9.2496 5.2496,8 6.8008,8 H 22.199 C 26.399,8 27.8,14 32,14 H 57.199 C 58.75,14 60,15.25 60,16.801 V 15.801 C 60,14.25 58.75,13 57.199,13 H 32 C 27.8,13 26.399,7 22.199,7 Z"/>
 <path style="fill:#1d344f" d="m 39.565757,46.760126 c 0.317039,-0.627037 2.138773,-11.348663 2.399198,-14.120226 0.281738,-2.746382 -1.187277,-2.23567 -2.539005,-1.771719 -3.316315,1.142193 -13.801448,5.240331 -16.671432,6.768329 -0.706564,0.298848 -1.01197,0.805907 -0.497862,1.244778 0.442646,0.371996 2.062379,0.882921 3.36865,1.142204 1.113538,0.344098 1.978485,0.0145 2.776902,-0.444882 1.91875,-1.160366 7.63619,-4.319109 7.94408,-4.524811 0.307891,-0.205704 0.644872,0.176048 0.472556,0.360857 -0.172317,0.184807 -4.221498,3.88868 -5.550937,5.563322 -0.704316,0.920793 -0.68322,1.412393 0.04032,1.993038 1.6232,1.298303 5.96006,4.258103 6.60537,4.437004 0.822867,0.228124 1.304794,0.03913 1.652167,-0.647894 z"/>
</svg>
