<svg xmlns="http://www.w3.org/2000/svg" width="64" height="64" version="1">
 <rect style="opacity:0.2" width="56" height="36" x="4" y="22" rx="2.8" ry="2.8"/>
 <path style="fill:#4877b1" d="M 4,46.2 C 4,47.751 5.2488,49 6.8,49 H 57.2 C 58.751,49 60,47.751 60,46.2 V 15.8 C 60,14.249 58.751,13 57.2,13 H 32 C 27.8,13 26.4,7 22.2,7 H 6.8 C 5.2488,7 4,8.2488 4,9.8"/>
 <rect style="opacity:0.2" width="56" height="36" x="4" y="20" rx="2.8" ry="2.8"/>
 <rect style="fill:#e4e4e4" width="48" height="22" x="8" y="16" rx="2.8" ry="2.8"/>
 <rect style="fill:#5294e2" width="56" height="36" x="4" y="21" rx="2.8" ry="2.8"/>
 <path style="opacity:0.1;fill:#ffffff" d="M 6.8008,7 C 5.2496,7 4,8.2496 4,9.8008 V 10.801 C 4,9.2496 5.2496,8 6.8008,8 H 22.199 C 26.399,8 27.8,14 32,14 H 57.199 C 58.75,14 60,15.25 60,16.801 V 15.801 C 60,14.25 58.75,13 57.199,13 H 32 C 27.8,13 26.399,7 22.199,7 Z"/>
 <path style="fill:#1d344f" d="M 32,29 A 10,10 0 0 0 22,39 10,10 0 0 0 32,49 10,10 0 0 0 42,39 10,10 0 0 0 32,29 Z m -2.120571,4.288571 c 0.193714,-0.0036 0.390142,-0.0019 0.580428,0 4.567286,0.06243 8.121572,1.958572 8.121572,1.958572 0.462857,0.245857 0.684285,0.981286 0.491428,1.571 -0.192857,0.589571 -0.787143,0.917571 -1.25,0.672428 0,0 -5.792857,-3.058142 -11.690571,-1.177571 -0.496715,0.207714 -1.122715,-0.193571 -1.25,-0.839857 -0.127286,-0.646 0.244143,-1.396286 0.758857,-1.512143 1.454,-0.463714 2.882571,-0.644143 4.238286,-0.672429 z m 0.622285,4.285715 c 0.161143,-0.0014 0.303143,-0.006 0.460286,0 3.77,0.131428 6.380857,2.215285 6.380857,2.215285 0.334286,0.264286 0.468572,0.945143 0.295714,1.456572 -0.172857,0.511428 -0.63,0.769571 -0.965714,0.505 0,0 -4.152857,-3.349429 -9.488714,-1.392286 -0.375,0.177143 -0.790572,-0.174714 -0.881714,-0.759 -0.09114,-0.584286 0.201857,-1.226714 0.588714,-1.328143 1.282,-0.47 2.483143,-0.687428 3.610571,-0.697428 z m 0.449143,4.282857 c 1.844286,0.03571 3.488572,0.72 5.062,1.648571 C 36.247143,43.66 36.36,44.094286 36.23,44.404286 c -0.13,0.311428 -0.481429,0.407143 -0.694286,0.201428 0,0 -2.908571,-2.37 -7.224285,-1.05 -0.247715,0.107143 -0.531429,-0.09857 -0.588715,-0.448571 -0.05729,-0.35 0.147572,-0.75 0.404572,-0.801429 1.014571,-0.31 1.959,-0.454285 2.823571,-0.448571 z"/>
</svg>
