<svg xmlns="http://www.w3.org/2000/svg" width="16" height="16" version="1.1">
 <defs>
  <style id="current-color-scheme" type="text/css">
   .ColorScheme-Text { color:#ffffff; } .ColorScheme-Highlight { color:#4285f4; } .ColorScheme-NeutralText { color:#ff9800; } .ColorScheme-PositiveText { color:#4caf50; } .ColorScheme-NegativeText { color:#f44336; }
  </style>
 </defs>
 <path style="fill:currentColor" class="ColorScheme-Text" d="M 7.1601562 2 C 6.9607166 2 6.8007812 2.1599354 6.8007812 2.359375 L 6.8007812 3.4394531 C 6.8007812 3.6388927 6.9607166 3.8007813 7.1601562 3.8007812 L 8.2402344 3.8007812 C 8.439674 3.8007812 8.5996094 3.6388927 8.5996094 3.4394531 L 8.5996094 2.359375 C 8.5996094 2.1599354 8.439674 2 8.2402344 2 L 7.1601562 2 z M 4.7597656 4.4003906 C 4.560326 4.4003906 4.4003906 4.560326 4.4003906 4.7597656 L 4.4003906 5.8398438 C 4.4003906 6.0392834 4.560326 6.1992188 4.7597656 6.1992188 L 5.8398438 6.1992188 C 6.0392834 6.1992188 6.1992188 6.0392834 6.1992188 5.8398438 L 6.1992188 4.7597656 C 6.1992188 4.560326 6.0392834 4.4003906 5.8398438 4.4003906 L 4.7597656 4.4003906 z M 7.1601562 4.4003906 C 6.9607166 4.4003906 6.8007812 4.560326 6.8007812 4.7597656 L 6.8007812 5.8398438 C 6.8007812 6.0392834 6.9607166 6.1992188 7.1601562 6.1992188 L 8.2402344 6.1992188 C 8.439674 6.1992188 8.5996094 6.0392834 8.5996094 5.8398438 L 8.5996094 4.7597656 C 8.5996094 4.560326 8.439674 4.4003906 8.2402344 4.4003906 L 7.1601562 4.4003906 z M 11.939453 6 C 11.917018 6.0000071 11.73208 6.300794 11.65625 6.4609375 C 11.472178 6.8496134 11.384766 7.2104073 11.384766 7.6035156 C 11.383966 7.959806 11.451019 8.2525866 11.597656 8.5449219 C 11.635626 8.6205572 11.666016 8.6879394 11.666016 8.6933594 C 11.666016 8.7143456 11.470321 8.7972502 11.304688 8.8457031 C 11.185919 8.8804531 10.934892 8.9249213 10.775391 8.9414062 C 10.680622 8.9511382 9.0328517 8.9568204 5.984375 8.9570312 C 1.3461077 8.9573512 1.3376586 8.9586603 1.2753906 8.9882812 C 1.1370884 9.0541178 1.0526914 9.1587185 1.015625 9.3105469 C 0.99229115 9.4074536 0.99539335 9.646768 1.0253906 10.054688 C 1.1108593 11.212801 1.4513164 11.768618 1.9726562 12.494141 C 2.3937959 13.080247 2.8648655 13.421224 3.5996094 13.671875 C 4.1126837 13.846907 4.6391241 13.940414 5.4179688 13.994141 C 5.5572708 14.003477 6.2867549 13.999764 6.4628906 13.988281 C 8.0091793 13.887481 9.3489366 13.414751 10.396484 12.601562 C 11.438033 11.793058 12.204086 11.175616 12.808594 9.5820312 L 12.841797 9.4980469 L 12.976562 9.4980469 C 13.597604 9.4968748 14.147465 9.2777088 14.533203 8.8769531 C 14.684339 8.7199616 14.779558 8.5885076 14.867188 8.4140625 C 14.922122 8.3047793 15 8.097766 15 8.0625 C 15 8.0567076 14.95406 8.0169704 14.898438 7.9726562 C 14.690001 7.8065818 14.432073 7.7044077 14.085938 7.6523438 C 13.8674 7.6194748 13.37791 7.6334434 13.171875 7.6777344 C 13.136835 7.6852364 13.134527 7.6816666 13.117188 7.578125 C 13.03392 7.0846131 12.708888 6.5520914 12.291016 6.2265625 C 12.186815 6.1454058 11.961453 5.9999929 11.939453 6 z M 2.359375 6.8007812 C 2.1599354 6.8007812 2 6.9607166 2 7.1601562 L 2 8.2402344 C 2 8.439674 2.1599354 8.5996094 2.359375 8.5996094 L 3.4394531 8.5996094 C 3.6388927 8.5996094 3.8007813 8.439674 3.8007812 8.2402344 L 3.8007812 7.1601562 C 3.8007812 6.9607166 3.6388927 6.8007812 3.4394531 6.8007812 L 2.359375 6.8007812 z M 4.7597656 6.8007812 C 4.560326 6.8007812 4.4003906 6.9607166 4.4003906 7.1601562 L 4.4003906 8.2402344 C 4.4003906 8.439674 4.560326 8.5996094 4.7597656 8.5996094 L 5.8398438 8.5996094 C 6.0392834 8.5996094 6.1992188 8.439674 6.1992188 8.2402344 L 6.1992188 7.1601562 C 6.1992188 6.9607166 6.0392834 6.8007812 5.8398438 6.8007812 L 4.7597656 6.8007812 z M 7.1601562 6.8007812 C 6.9607166 6.8007812 6.8007812 6.9607166 6.8007812 7.1601562 L 6.8007812 8.2402344 C 6.8007812 8.439674 6.9607166 8.5996094 7.1601562 8.5996094 L 8.2402344 8.5996094 C 8.439674 8.5996094 8.5996094 8.439674 8.5996094 8.2402344 L 8.5996094 7.1601562 C 8.5996094 6.9607166 8.439674 6.8007812 8.2402344 6.8007812 L 7.1601562 6.8007812 z M 9.5605469 6.8007812 C 9.3611073 6.8007812 9.1992187 6.9607166 9.1992188 7.1601562 L 9.1992188 8.2402344 C 9.1992188 8.439674 9.3611073 8.5996094 9.5605469 8.5996094 L 10.640625 8.5996094 C 10.840065 8.5996094 11 8.439674 11 8.2402344 L 11 7.1601562 C 11 6.9607166 10.840065 6.8007812 10.640625 6.8007812 L 9.5605469 6.8007812 z"/>
</svg>
