<svg xmlns="http://www.w3.org/2000/svg" width="48" height="48" version="1">
 <rect style="opacity:0.2" width="40" height="26" x="4" y="17" rx="2" ry="2"/>
 <path style="fill:#4877b1" d="M 4,34 C 4,35.108 4.892,36 6,36 H 42 C 43.108,36 44,35.108 44,34 V 12 C 44,10.892 43.108,10 42,10 H 24 C 21,10 20,6 17,6 H 6 C 4.892,6 4,6.892 4,8"/>
 <rect style="opacity:0.2" width="40" height="26" x="4" y="15" rx="2" ry="2"/>
 <rect style="fill:#e4e4e4" width="36" height="16" x="6" y="13" rx="2" ry="2"/>
 <rect style="fill:#5294e2" width="40" height="26" x="4" y="16" rx="2" ry="2"/>
 <path style="opacity:0.1;fill:#ffffff" d="M 6,6 C 4.892,6 4,6.892 4,8 V 9 C 4,7.892 4.892,7 6,7 H 17 C 20,7 21,11 24,11 H 42 C 43.108,11 44,11.892 44,13 V 12 C 44,10.892 43.108,10 42,10 H 24 C 21,10 20,6 17,6 Z"/>
 <path style="fill:#1d344f" d="m 30.052605,34.434213 c 0.253632,-0.479498 1.711019,-8.678388 1.919358,-10.797819 0.225391,-2.100175 -0.949821,-1.709629 -2.031204,-1.354844 -2.653051,0.873442 -11.041157,4.614312 -13.337145,5.782781 -0.56525,0.228533 -0.809576,0.616283 -0.398289,0.95189 0.354117,0.284468 1.649902,0.675174 2.69492,0.87345 0.890831,0.263133 1.582787,0.01109 2.221521,-0.340204 1.535,-0.887338 6.108952,-3.909849 6.355264,-4.06715 0.246314,-0.157302 0.515898,0.134626 0.378046,0.275949 -0.137853,0.141323 -3.377198,2.973696 -4.440751,4.254305 -0.563453,0.704136 -0.546575,1.080065 0.03226,1.524088 1.298561,0.99282 4.768049,3.256196 5.284296,3.393003 0.658294,0.174448 1.043836,0.02993 1.321734,-0.495449 z"/>
</svg>
