<svg xmlns="http://www.w3.org/2000/svg" width="48" height="48" version="1">
 <rect style="opacity:0.2" width="40" height="26" x="4" y="17" rx="2" ry="2"/>
 <path style="fill:#4877b1" d="M 4,34 C 4,35.108 4.892,36 6,36 H 42 C 43.108,36 44,35.108 44,34 V 12 C 44,10.892 43.108,10 42,10 H 24 C 21,10 20,6 17,6 H 6 C 4.892,6 4,6.892 4,8"/>
 <rect style="opacity:0.2" width="40" height="26" x="4" y="15" rx="2" ry="2"/>
 <rect style="fill:#e4e4e4" width="36" height="16" x="6" y="13" rx="2" ry="2"/>
 <rect style="fill:#5294e2" width="40" height="26" x="4" y="16" rx="2" ry="2"/>
 <path style="opacity:0.1;fill:#ffffff" d="M 6,6 C 4.892,6 4,6.892 4,8 V 9 C 4,7.892 4.892,7 6,7 H 17 C 20,7 21,11 24,11 H 42 C 43.108,11 44,11.892 44,13 V 12 C 44,10.892 43.108,10 42,10 H 24 C 21,10 20,6 17,6 Z"/>
 <path style="fill:#1d344f" d="M 23.798828 22 C 23.632628 22 23.5 22.134581 23.5 22.300781 L 23.5 23.199219 C 23.5 23.365419 23.632628 23.5 23.798828 23.5 L 24.699219 23.5 C 24.865419 23.5 25 23.365419 25 23.199219 L 25 22.300781 C 25 22.134581 24.865419 22 24.699219 22 L 23.798828 22 z M 19.798828 24 C 19.632628 24 19.5 24.134581 19.5 24.300781 L 19.5 25.199219 C 19.5 25.365419 19.632628 25.5 19.798828 25.5 L 20.699219 25.5 C 20.865419 25.5 21 25.365419 21 25.199219 L 21 24.300781 C 21 24.134581 20.865419 24 20.699219 24 L 19.798828 24 z M 21.798828 24 C 21.632628 24 21.5 24.134581 21.5 24.300781 L 21.5 25.199219 C 21.5 25.365419 21.632628 25.5 21.798828 25.5 L 22.699219 25.5 C 22.865419 25.5 23 25.365419 23 25.199219 L 23 24.300781 C 23 24.134581 22.865419 24 22.699219 24 L 21.798828 24 z M 23.798828 24 C 23.632628 24 23.5 24.134581 23.5 24.300781 L 23.5 25.199219 C 23.5 25.365419 23.632628 25.5 23.798828 25.5 L 24.699219 25.5 C 24.865419 25.5 25 25.365419 25 25.199219 L 25 24.300781 C 25 24.134581 24.865419 24 24.699219 24 L 23.798828 24 z M 28.21875 25.099609 C 28.194712 25.099615 27.997276 25.398309 27.916016 25.556641 C 27.718793 25.940935 27.626953 26.296871 27.626953 26.685547 C 27.626097 27.037821 27.6964 27.328147 27.853516 27.617188 C 27.894216 27.69197 27.927734 27.756419 27.927734 27.761719 C 27.927734 27.78247 27.716534 27.864209 27.539062 27.912109 C 27.411805 27.946459 27.145511 27.993456 26.974609 28.009766 C 26.873068 28.019416 25.106192 28.023228 21.839844 28.023438 C 16.870083 28.023757 16.361642 28.023444 16.294922 28.052734 C 16.146734 28.11783 16.055335 28.222932 16.015625 28.373047 C 15.990625 28.468862 15.995194 28.706056 16.027344 29.109375 C 16.118921 30.254431 16.482415 31.794373 17.041016 32.511719 C 17.492253 33.091215 17.9979 33.427954 18.785156 33.675781 C 19.334439 33.848692 19.899066 33.941 20.732422 33.994141 L 20.734375 33.994141 C 20.886221 34.003635 22.165023 33.999617 22.353516 33.988281 C 24.010317 33.888618 25.445943 33.423158 26.568359 32.619141 C 27.684345 31.819755 28.504631 30.218193 29.152344 28.642578 L 29.1875 28.558594 L 29.330078 28.558594 C 29.995505 28.557435 30.586693 28.339594 31 27.943359 C 31.161938 27.788138 31.263522 27.658807 31.357422 27.486328 C 31.416279 27.378277 31.5 27.175495 31.5 27.140625 C 31.5 27.134895 31.452188 27.092648 31.392578 27.048828 C 31.169244 26.884625 30.892361 26.785855 30.521484 26.734375 C 30.287331 26.701875 29.761777 26.714023 29.541016 26.757812 C 29.503466 26.765242 29.500992 26.762532 29.482422 26.660156 C 29.393203 26.172211 29.045395 25.646078 28.597656 25.324219 C 28.486008 25.243978 28.24232 25.099601 28.21875 25.099609 z M 17.798828 26 C 17.632628 26 17.5 26.134581 17.5 26.300781 L 17.5 27.199219 C 17.5 27.365419 17.632628 27.5 17.798828 27.5 L 18.699219 27.5 C 18.865419 27.5 19 27.365419 19 27.199219 L 19 26.300781 C 19 26.134581 18.865419 26 18.699219 26 L 17.798828 26 z M 19.798828 26 C 19.632628 26 19.5 26.134581 19.5 26.300781 L 19.5 27.199219 C 19.5 27.365419 19.632628 27.5 19.798828 27.5 L 20.699219 27.5 C 20.865419 27.5 21 27.365419 21 27.199219 L 21 26.300781 C 21 26.134581 20.865419 26 20.699219 26 L 19.798828 26 z M 21.798828 26 C 21.632628 26 21.5 26.134581 21.5 26.300781 L 21.5 27.199219 C 21.5 27.365419 21.632628 27.5 21.798828 27.5 L 22.699219 27.5 C 22.865419 27.5 23 27.365419 23 27.199219 L 23 26.300781 C 23 26.134581 22.865419 26 22.699219 26 L 21.798828 26 z M 23.798828 26 C 23.632628 26 23.5 26.134581 23.5 26.300781 L 23.5 27.199219 C 23.5 27.365419 23.632628 27.5 23.798828 27.5 L 24.699219 27.5 C 24.865419 27.5 25 27.365419 25 27.199219 L 25 26.300781 C 25 26.134581 24.865419 26 24.699219 26 L 23.798828 26 z M 25.798828 26 C 25.632628 26 25.5 26.134581 25.5 26.300781 L 25.5 27.199219 C 25.5 27.365419 25.632628 27.5 25.798828 27.5 L 26.699219 27.5 C 26.865419 27.5 27 27.365419 27 27.199219 L 27 26.300781 C 27 26.134581 26.865419 26 26.699219 26 L 25.798828 26 z"/>
</svg>
