<svg xmlns="http://www.w3.org/2000/svg" width="48" height="48" version="1">
 <rect style="opacity:0.2" width="40" height="26" x="4" y="17" rx="2" ry="2"/>
 <path style="fill:#4877b1" d="M 4,34 C 4,35.108 4.892,36 6,36 H 42 C 43.108,36 44,35.108 44,34 V 12 C 44,10.892 43.108,10 42,10 H 24 C 21,10 20,6 17,6 H 6 C 4.892,6 4,6.892 4,8"/>
 <rect style="opacity:0.2" width="40" height="26" x="4" y="15" rx="2" ry="2"/>
 <rect style="fill:#e4e4e4" width="36" height="16" x="6" y="13" rx="2" ry="2"/>
 <rect style="fill:#5294e2" width="40" height="26" x="4" y="16" rx="2" ry="2"/>
 <path style="opacity:0.1;fill:#ffffff" d="M 6,6 C 4.892,6 4,6.892 4,8 V 9 C 4,7.892 4.892,7 6,7 H 17 C 20,7 21,11 24,11 H 42 C 43.108,11 44,11.892 44,13 V 12 C 44,10.892 43.108,10 42,10 H 24 C 21,10 20,6 17,6 Z"/>
 <path style="fill:#1d344f" d="m 24,21 a 8,8 0 0 0 -8,8 8,8 0 0 0 8,8 8,8 0 0 0 8,-8 8,8 0 0 0 -8,-8 z m -1.696457,3.430857 c 0.154972,-0.0028 0.312114,-0.0015 0.464342,0 3.65383,0.04995 6.497258,1.566858 6.497258,1.566858 0.370285,0.196685 0.547429,0.785028 0.393142,1.2568 -0.154285,0.471657 -0.629713,0.734057 -1,0.537942 0,0 -4.634285,-2.446514 -9.352457,-0.942057 -0.397371,0.166172 -0.898171,-0.154857 -1,-0.671885 -0.101827,-0.5168 0.195315,-1.11703 0.607087,-1.209715 1.1632,-0.370972 2.306057,-0.515315 3.390628,-0.537943 z m 0.497829,3.428571 c 0.128907,-0.0011 0.242513,-0.0048 0.368228,0 3.016,0.105147 5.104685,1.772229 5.104685,1.772229 0.26743,0.211428 0.374858,0.756115 0.236572,1.165258 -0.138285,0.409142 -0.504,0.615657 -0.772572,0.404 0,0 -3.322285,-2.679543 -7.59097,-1.11383 -0.3,0.141715 -0.632458,-0.13977 -0.705372,-0.6072 -0.07292,-0.467428 0.161485,-0.98137 0.470972,-1.062513 1.0256,-0.376 1.986513,-0.549944 2.888457,-0.557944 z m 0.359313,3.426287 c 1.47543,0.02857 2.790858,0.576 4.0496,1.318857 0.18743,0.123427 0.277715,0.470856 0.173715,0.718856 -0.104,0.249144 -0.385143,0.325715 -0.555428,0.161144 0,0 -2.326857,-1.896 -5.779429,-0.84 -0.198171,0.08571 -0.425143,-0.07885 -0.470971,-0.358857 -0.04583,-0.28 0.118053,-0.6 0.323656,-0.641143 0.811657,-0.248 1.5672,-0.363429 2.258857,-0.358857 z"/>
</svg>
