<svg xmlns="http://www.w3.org/2000/svg" width="24" height="24" version="1">
 <rect style="opacity:0.2" width="20" height="12" x="2" y="9.5" rx="1" ry="1"/>
 <path style="fill:#4877b1" d="M 2,17 C 2,17.554 2.446,18 3,18 H 21 C 21.554,18 22,17.554 22,17 V 6 C 22,5.446 21.554,5 21,5 H 12 C 10.5,5 10,3 8.5,3 H 3 C 2.446,3 2,3.446 2,4"/>
 <path style="opacity:0.1;fill:#ffffff" d="M 3,3 C 2.446,3 2,3.446 2,4 V 4.5 C 2,3.946 2.446,3.5 3,3.5 H 8.5 C 10,3.5 10.5,5.5 12,5.5 H 21 C 21.554,5.5 22,5.946 22,6.5 V 6 C 22,5.446 21.554,5 21,5 H 12 C 10.5,5 10,3 8.5,3 Z"/>
 <rect style="opacity:0.2" width="20" height="12" x="2" y="8.5" rx="1" ry="1"/>
 <rect style="fill:#e4e4e4" width="16" height="8" x="4" y="7" rx="1" ry="1"/>
 <rect style="fill:#5294e2" width="20" height="12" x="2" y="9" rx="1" ry="1"/>
 <path style="fill:#1d344f" d="m 11.599519,11.5 c -0.1108,0 -0.199218,0.08842 -0.199218,0.199219 v 0.601562 c 0,0.1108 0.08842,0.199219 0.199218,0.199219 h 0.59961 c 0.1108,0 0.201172,-0.08842 0.201172,-0.199219 v -0.601562 c 0,-0.1108 -0.09037,-0.199219 -0.201172,-0.199219 z m -1.419922,1.400391 c -0.101096,0.0102 -0.1796878,0.09534 -0.1796878,0.199218 v 0.59961 c 0,0.1108 0.088419,0.201172 0.1992188,0.201172 h 0.601562 c 0.1108,0 0.199219,-0.09037 0.199219,-0.201172 v -0.59961 c 0,-0.1108 -0.08842,-0.199218 -0.199219,-0.199218 h -0.601562 c -0.0069,0 -0.01279,-6.81e-4 -0.01953,0 z m 1.400391,0 c -0.101096,0.0102 -0.179687,0.09534 -0.179687,0.199218 v 0.59961 c 0,0.1108 0.08842,0.201172 0.199218,0.201172 h 0.59961 c 0.1108,0 0.201172,-0.09037 0.201172,-0.201172 v -0.59961 c 0,-0.1108 -0.09037,-0.199218 -0.201172,-0.199218 h -0.59961 c -0.0069,0 -0.01279,-6.81e-4 -0.01953,0 z M 14.328035,14 c -0.01298,3e-6 -0.120193,0.169666 -0.164063,0.259766 -0.106504,0.21863 -0.15625,0.42145 -0.15625,0.642578 -4.62e-4,0.200415 0.0382,0.364854 0.123047,0.529297 0.02198,0.04259 0.04102,0.08118 0.04102,0.08398 0,0.01172 -0.115118,0.05669 -0.210937,0.08398 -0.06872,0.01957 -0.212398,0.04569 -0.304688,0.05469 -0.05483,0.0056 -1.007728,0.0096 -2.771485,0.0098 -2.6835634,1.5e-4 -2.6885846,-0.0011 -2.7246096,0.01563 -0.080021,0.03703 -0.1289496,0.09625 -0.1503906,0.18164 -0.013535,0.05451 -0.013449,0.190464 0.00391,0.419922 0.049449,0.651449 0.2471975,0.96298 0.5488281,1.371094 0.2436584,0.329682 0.5163048,0.523067 0.9414062,0.664062 0.296848,0.09845 0.6021199,0.149469 1.0527349,0.179688 v 0.002 c 0.0806,0.0046 0.50161,0.0027 0.603516,-0.0039 0.894637,-0.0567 1.671268,-0.323829 2.277344,-0.78125 0.602612,-0.454793 1.044782,-0.800861 1.394531,-1.697266 l 0.01953,-0.04687 h 0.07813 c 0.359316,-6.58e-4 0.677212,-0.126136 0.90039,-0.351562 0.08744,-0.08831 0.14266,-0.161666 0.19336,-0.259766 0.03178,-0.06147 0.07617,-0.177456 0.07617,-0.197266 0,-0.0033 -0.02641,-0.0259 -0.05859,-0.05078 -0.120597,-0.09338 -0.268486,-0.150368 -0.46875,-0.179687 -0.126437,-0.01846 -0.410092,-0.01119 -0.529297,0.01367 -0.02027,0.0042 -0.02123,0.0017 -0.03125,-0.05664 -0.04817,-0.277605 -0.236747,-0.576655 -0.478516,-0.759766 C 14.472826,14.081274 14.340775,13.999995 14.328035,14 Z M 8.7792061,14.300781 C 8.6781102,14.310991 8.5995186,14.396121 8.5995186,14.5 v 0.599609 c 0,0.1108 0.088419,0.201172 0.1992187,0.201172 h 0.6015625 c 0.1107998,0 0.1992188,-0.09037 0.1992188,-0.201172 V 14.5 c 0,-0.1108 -0.088419,-0.199219 -0.1992188,-0.199219 H 8.7987373 c -0.00692,0 -0.012792,-6.8e-4 -0.019531,0 z m 1.4003909,0 C 10.078501,14.310991 9.9999092,14.396121 9.9999092,14.5 v 0.599609 c 0,0.1108 0.088419,0.201172 0.1992188,0.201172 h 0.601562 c 0.1108,0 0.199219,-0.09037 0.199219,-0.201172 V 14.5 c 0,-0.1108 -0.08842,-0.199219 -0.199219,-0.199219 h -0.601562 c -0.0069,0 -0.01279,-6.8e-4 -0.01953,0 z m 1.400391,0 c -0.101096,0.01021 -0.179687,0.09534 -0.179687,0.199219 v 0.599609 c 0,0.1108 0.08842,0.201172 0.199218,0.201172 h 0.59961 c 0.1108,0 0.201172,-0.09037 0.201172,-0.201172 V 14.5 c 0,-0.1108 -0.09037,-0.199219 -0.201172,-0.199219 h -0.59961 c -0.0069,0 -0.01279,-6.8e-4 -0.01953,0 z m 1.398438,0 C 12.87733,14.310991 12.798738,14.396121 12.798738,14.5 v 0.599609 c 0,0.1108 0.09037,0.201172 0.201172,0.201172 h 0.599609 c 0.1108,0 0.201172,-0.09037 0.201172,-0.201172 V 14.5 c 0,-0.1108 -0.09037,-0.199219 -0.201172,-0.199219 H 12.99991 c -0.0069,0 -0.01473,-6.8e-4 -0.02148,0 z"/>
</svg>
