<svg xmlns="http://www.w3.org/2000/svg" width="24" height="24" version="1">
 <rect style="opacity:0.2" width="20" height="12" x="2" y="9.5" rx="1" ry="1"/>
 <path style="fill:#4877b1" d="M 2,17 C 2,17.554 2.446,18 3,18 H 21 C 21.554,18 22,17.554 22,17 V 6 C 22,5.446 21.554,5 21,5 H 12 C 10.5,5 10,3 8.5,3 H 3 C 2.446,3 2,3.446 2,4"/>
 <path style="opacity:0.1;fill:#ffffff" d="M 3,3 C 2.446,3 2,3.446 2,4 V 4.5 C 2,3.946 2.446,3.5 3,3.5 H 8.5 C 10,3.5 10.5,5.5 12,5.5 H 21 C 21.554,5.5 22,5.946 22,6.5 V 6 C 22,5.446 21.554,5 21,5 H 12 C 10.5,5 10,3 8.5,3 Z"/>
 <rect style="opacity:0.2" width="20" height="12" x="2" y="8.5" rx="1" ry="1"/>
 <rect style="fill:#e4e4e4" width="16" height="8" x="4" y="7" rx="1" ry="1"/>
 <rect style="fill:#5294e2" width="20" height="12" x="2" y="9" rx="1" ry="1"/>
 <path style="fill:#1d344f" d="m 15.026303,17.695345 c 0.126816,-0.258191 0.855509,-4.672978 0.959679,-5.81421 0.112695,-1.130863 -0.474911,-0.920569 -1.015602,-0.729531 -1.326526,0.470315 -5.5205791,2.484629 -6.6685729,3.113805 -0.2826253,0.123056 -0.4047881,0.331845 -0.1991448,0.512556 0.1770586,0.153175 0.8249514,0.363555 1.3474605,0.470319 0.4454152,0.141687 0.7913932,0.006 1.1107602,-0.183186 0.7675,-0.477798 3.054476,-2.105304 3.177632,-2.190005 0.123157,-0.0847 0.257949,0.07249 0.189023,0.148589 -0.06893,0.0761 -1.688599,1.601221 -2.220375,2.290779 -0.281727,0.37915 -0.273288,0.581574 0.01613,0.820663 0.649281,0.534595 2.384025,1.753336 2.642148,1.827001 0.329147,0.09393 0.521918,0.01612 0.660867,-0.26678 z"/>
</svg>
