<svg xmlns="http://www.w3.org/2000/svg" width="32" height="32" version="1">
 <rect style="opacity:0.2" width="28" height="18" x="2" y="11" rx="1.4" ry="1.4"/>
 <path style="fill:#4877b1" d="M 2,22.6 C 2,23.376 2.6244,24 3.4,24 H 28.6 C 29.376,24 30,23.376 30,22.6 V 7.4 C 30,6.6244 29.376,6 28.6,6 H 16 C 13.9,6 13.2,3 11.1,3 H 3.4 C 2.6244,3 2,3.6244 2,4.4"/>
 <rect style="opacity:0.2" width="28" height="18" x="2" y="9" rx="1.4" ry="1.4"/>
 <rect style="fill:#e4e4e4" width="24" height="11" x="4" y="8" rx="1.4" ry="1.4"/>
 <rect style="fill:#5294e2" width="28" height="18" x="2" y="10" rx="1.4" ry="1.4"/>
 <path style="opacity:0.1;fill:#ffffff" d="M 3.4004,3 C 2.6248,3 2,3.6248 2,4.4004 V 5.4004 C 2,4.6248 2.6248,4 3.4004,4 H 11.1 C 13.2,4 13.9,7 16,7 H 28.6 C 29.375,7 30,7.6248 30,8.4004 V 7.4004 C 30,6.6248 29.375,6 28.6,6 H 16 C 13.9,6 13.2,3 11.1,3 Z"/>
 <path style="fill:#1d344f" d="m 16,13 a 6,6 0 0 0 -6,6 6,6 0 0 0 6,6 6,6 0 0 0 6,-6 6,6 0 0 0 -6,-6 z m -1.272343,2.573143 c 0.116229,-0.0021 0.234086,-0.0011 0.348257,0 2.740372,0.03746 4.872943,1.175143 4.872943,1.175143 0.277714,0.147514 0.410572,0.588771 0.294857,0.9426 -0.115714,0.353743 -0.472285,0.550543 -0.75,0.403457 0,0 -3.475714,-1.834886 -7.014343,-0.706543 -0.298028,0.124629 -0.673628,-0.116143 -0.75,-0.503914 -0.07637,-0.3876 0.146486,-0.837772 0.455315,-0.907286 0.8724,-0.278229 1.729543,-0.386486 2.542971,-0.403457 z m 0.373372,2.571428 c 0.09668,-8.57e-4 0.181885,-0.0036 0.276171,0 2.262,0.07886 3.828514,1.329172 3.828514,1.329172 0.200572,0.158571 0.281143,0.567086 0.177429,0.873943 -0.103714,0.306857 -0.378,0.461743 -0.579429,0.303 0,0 -2.491714,-2.009657 -5.693228,-0.835372 -0.225,0.106286 -0.474343,-0.104828 -0.529029,-0.4554 -0.05469,-0.350571 0.121114,-0.736028 0.353229,-0.796885 0.7692,-0.282 1.489885,-0.412458 2.166343,-0.418458 z m 0.269485,2.569715 c 1.106572,0.02143 2.093143,0.432 3.0372,0.989143 0.140572,0.09257 0.208286,0.353142 0.130286,0.539142 -0.078,0.186858 -0.288857,0.244286 -0.416571,0.120858 0,0 -1.745143,-1.422 -4.334572,-0.63 -0.148628,0.06428 -0.318857,-0.05914 -0.353228,-0.269143 -0.03437,-0.21 0.08854,-0.45 0.242742,-0.480857 0.608743,-0.186 1.1754,-0.272572 1.694143,-0.269143 z"/>
</svg>
