<svg xmlns="http://www.w3.org/2000/svg" width="32" height="32" version="1">
 <rect style="opacity:0.2" width="28" height="18" x="2" y="11" rx="1.4" ry="1.4"/>
 <path style="fill:#4877b1" d="M 2,22.6 C 2,23.376 2.6244,24 3.4,24 H 28.6 C 29.376,24 30,23.376 30,22.6 V 7.4 C 30,6.6244 29.376,6 28.6,6 H 16 C 13.9,6 13.2,3 11.1,3 H 3.4 C 2.6244,3 2,3.6244 2,4.4"/>
 <rect style="opacity:0.2" width="28" height="18" x="2" y="9" rx="1.4" ry="1.4"/>
 <rect style="fill:#e4e4e4" width="24" height="11" x="4" y="8" rx="1.4" ry="1.4"/>
 <rect style="fill:#5294e2" width="28" height="18" x="2" y="10" rx="1.4" ry="1.4"/>
 <path style="opacity:0.1;fill:#ffffff" d="M 3.4004,3 C 2.6248,3 2,3.6248 2,4.4004 V 5.4004 C 2,4.6248 2.6248,4 3.4004,4 H 11.1 C 13.2,4 13.9,7 16,7 H 28.6 C 29.375,7 30,7.6248 30,8.4004 V 7.4004 C 30,6.6248 29.375,6 28.6,6 H 16 C 13.9,6 13.2,3 11.1,3 Z"/>
 <path style="fill:#1d344f" d="M 15.300781 14 C 15.134581 14 15 14.134581 15 14.300781 L 15 15.199219 C 15 15.365419 15.134581 15.5 15.300781 15.5 L 16.199219 15.5 C 16.365419 15.5 16.5 15.365419 16.5 15.199219 L 16.5 14.300781 C 16.5 14.134581 16.365419 14 16.199219 14 L 15.300781 14 z M 13.300781 16 C 13.134581 16 13 16.134581 13 16.300781 L 13 17.199219 C 13 17.365419 13.134581 17.5 13.300781 17.5 L 14.199219 17.5 C 14.365419 17.5 14.5 17.365419 14.5 17.199219 L 14.5 16.300781 C 14.5 16.134581 14.365419 16 14.199219 16 L 13.300781 16 z M 15.300781 16 C 15.134581 16 15 16.134581 15 16.300781 L 15 17.199219 C 15 17.365419 15.134581 17.5 15.300781 17.5 L 16.199219 17.5 C 16.365419 17.5 16.5 17.365419 16.5 17.199219 L 16.5 16.300781 C 16.5 16.134581 16.365419 16 16.199219 16 L 15.300781 16 z M 19.375 17.699219 C 19.355769 17.699224 19.197812 17.936386 19.132812 18.0625 C 18.975033 18.368586 18.902344 18.653316 18.902344 18.962891 C 18.901659 19.243472 18.958296 19.474861 19.083984 19.705078 C 19.116524 19.764636 19.142578 19.816113 19.142578 19.820312 C 19.142578 19.83684 18.974004 19.901303 18.832031 19.939453 C 18.730229 19.966823 18.515623 20.004598 18.378906 20.017578 C 18.297677 20.025258 16.884466 20.029131 14.271484 20.029297 C 10.295822 20.029557 10.289698 20.029404 10.236328 20.052734 C 10.117783 20.104581 10.045442 20.187075 10.013672 20.306641 C 9.9936839 20.382955 9.9957744 20.571339 10.021484 20.892578 C 10.094743 21.804602 10.387121 22.243097 10.833984 22.814453 C 11.194961 23.276015 11.598735 23.544796 12.228516 23.742188 C 12.668294 23.880025 13.119528 23.953784 13.787109 23.996094 C 13.906512 24.003644 14.532621 23.999334 14.683594 23.990234 C 16.008985 23.910853 17.156788 23.540783 18.054688 22.900391 C 18.947444 22.263689 19.604897 21.776443 20.123047 20.521484 L 20.150391 20.455078 L 20.265625 20.455078 C 20.797947 20.454156 21.268976 20.280439 21.599609 19.964844 C 21.729154 19.841211 21.811609 19.738939 21.886719 19.601562 C 21.933801 19.515501 22 19.351989 22 19.324219 C 22 19.319659 21.961742 19.286853 21.914062 19.251953 C 21.735403 19.121168 21.513487 19.042953 21.216797 19.001953 C 21.02948 18.976063 20.610196 18.986614 20.433594 19.021484 C 20.403574 19.027394 20.401579 19.024899 20.386719 18.943359 C 20.315346 18.554715 20.035912 18.135262 19.677734 17.878906 C 19.588419 17.814994 19.39385 17.699213 19.375 17.699219 z M 11.300781 18 C 11.134581 18 11 18.134581 11 18.300781 L 11 19.199219 C 11 19.365419 11.134581 19.5 11.300781 19.5 L 12.199219 19.5 C 12.365419 19.5 12.5 19.365419 12.5 19.199219 L 12.5 18.300781 C 12.5 18.134581 12.365419 18 12.199219 18 L 11.300781 18 z M 13.300781 18 C 13.134581 18 13 18.134581 13 18.300781 L 13 19.199219 C 13 19.365419 13.134581 19.5 13.300781 19.5 L 14.199219 19.5 C 14.365419 19.5 14.5 19.365419 14.5 19.199219 L 14.5 18.300781 C 14.5 18.134581 14.365419 18 14.199219 18 L 13.300781 18 z M 15.300781 18 C 15.134581 18 15 18.134581 15 18.300781 L 15 19.199219 C 15 19.365419 15.134581 19.5 15.300781 19.5 L 16.199219 19.5 C 16.365419 19.5 16.5 19.365419 16.5 19.199219 L 16.5 18.300781 C 16.5 18.134581 16.365419 18 16.199219 18 L 15.300781 18 z M 17.300781 18 C 17.134581 18 17 18.134581 17 18.300781 L 17 19.199219 C 17 19.365419 17.134581 19.5 17.300781 19.5 L 18.199219 19.5 C 18.365419 19.5 18.5 19.365419 18.5 19.199219 L 18.5 18.300781 C 18.5 18.134581 18.365419 18 18.199219 18 L 17.300781 18 z"/>
</svg>
