<svg xmlns="http://www.w3.org/2000/svg" width="32" height="32" version="1">
 <rect style="opacity:0.2" width="28" height="18" x="2" y="11" rx="1.4" ry="1.4"/>
 <path style="fill:#4877b1" d="M 2,22.6 C 2,23.376 2.6244,24 3.4,24 H 28.6 C 29.376,24 30,23.376 30,22.6 V 7.4 C 30,6.6244 29.376,6 28.6,6 H 16 C 13.9,6 13.2,3 11.1,3 H 3.4 C 2.6244,3 2,3.6244 2,4.4"/>
 <rect style="opacity:0.2" width="28" height="18" x="2" y="9" rx="1.4" ry="1.4"/>
 <rect style="fill:#e4e4e4" width="24" height="11" x="4" y="8" rx="1.4" ry="1.4"/>
 <rect style="fill:#5294e2" width="28" height="18" x="2" y="10" rx="1.4" ry="1.4"/>
 <path style="opacity:0.1;fill:#ffffff" d="M 3.4004,3 C 2.6248,3 2,3.6248 2,4.4004 V 5.4004 C 2,4.6248 2.6248,4 3.4004,4 H 11.1 C 13.2,4 13.9,7 16,7 H 28.6 C 29.375,7 30,7.6248 30,8.4004 V 7.4004 C 30,6.6248 29.375,6 28.6,6 H 16 C 13.9,6 13.2,3 11.1,3 Z"/>
 <path style="fill:#1d344f" d="m 20.539453,23.564779 c 0.190224,-0.368844 1.283265,-6.675683 1.439519,-8.306015 0.169043,-1.615519 -0.712366,-1.315099 -1.523403,-1.042187 -1.989789,0.671878 -8.280868,3.549471 -10.002859,4.448293 -0.423938,0.175795 -0.6071815,0.474063 -0.298717,0.732223 0.265588,0.218822 1.237426,0.519365 2.02119,0.671885 0.668123,0.20241 1.18709,0.0086 1.666141,-0.261696 1.15125,-0.682567 4.581714,-3.007576 4.766448,-3.128577 0.184735,-0.121001 0.386923,0.103559 0.283534,0.212269 -0.103389,0.10871 -2.532898,2.287458 -3.330563,3.272542 -0.42259,0.541643 -0.409931,0.83082 0.02419,1.172375 0.973921,0.763708 3.576037,2.504767 3.963222,2.610003 0.493721,0.134191 0.782877,0.02302 0.991301,-0.381115 z"/>
</svg>
